<?xml version="1.0" encoding="UTF-8"?>
<svg id="b" data-name="Layer 2" xmlns="http://www.w3.org/2000/svg" viewBox="0 0 376.82 230.41">
  <defs>
    <style>
      .d {
        fill: #fff;
        font-family: BaskOldFace, 'Baskerville Old Face';
        font-size: 47.41px;
      }

      .e {
        fill: #dd604a;
      }
    </style>
  </defs>
  <g id="c" data-name="Layer 1">
    <g>
      <g>
        <path class="e" d="M33.1,37.82c7.55-2.93,15.94-4.63,24.85-4.63,1.35,0,2.71.04,4.08.12,7.76.13,16.32.47,25.18.78,8.89.31,18.08.59,27.05.59.73,0,1.46,0,2.18,0h0c.07,0,.15,0,.23,0,8.48,0,15.85,1.38,22.08,3.88,6.23,2.5,11.31,6.14,15.13,10.54,2.55,2.93,4.54,6.18,5.97,9.62,1.91,4.58,2.82,9.48,2.82,14.41,0,7.51-2.12,15.08-6.15,21.85-4.03,6.77-10,12.73-17.69,16.94-4.66,2.55-9.95,4.46-15.79,5.52.33,3.22.94,6.89,1.82,10.82,1.07,4.76,2.53,9.91,4.36,15.15,3.67,10.49,8.85,21.39,15.26,30.49,4.27,6.07,9.07,11.34,14.24,15.22,2.96,2.22,6.03,3.99,9.2,5.25,3.63,1.44,7.38,2.21,11.35,2.21,3.75,0,6.62-.59,8.77-1.44,2.15-.86,3.61-1.96,4.65-3.15.69-.8,1.2-1.64,1.57-2.52.48-1.17.71-2.39.71-3.55,0-1.36-.33-2.38-.74-3.1-.42-.73-.94-1.16-1.43-1.39-.33-.16-.66-.23-1.04-.23h-.04s-6.11.12-6.11.12l1.41-5.95c.34-1.43.87-2.77,1.56-3.98.69-1.21,1.53-2.3,2.47-3.24,1.89-1.88,4.18-3.19,6.61-3.95,1.62-.5,3.3-.76,4.99-.76,2.03,0,4.08.37,6.03,1.18,1.95.8,3.79,2.05,5.29,3.74.74.83,1.39,1.76,1.95,2.77,9.21-16.56,14.47-35.63,14.47-55.93C230.41,51.58,178.83,0,115.2,0,80.26,0,48.95,15.56,27.82,40.13c1.71-.83,3.47-1.61,5.28-2.32Z"/>
        <path class="e" d="M169.99,213.52c-4.8,0-9.38-.6-13.7-1.75-4.32-1.15-8.39-2.84-12.18-4.99-7.58-4.3-14.03-10.41-19.46-17.66-3.62-4.83-6.8-10.18-9.57-15.89-3.7-7.61-6.69-15.86-9.05-24.42-3.14-11.41-5.16-23.36-6.17-35.06h0c-.06-.51-.09-1.01-.09-1.5,0-.93.09-1.86.28-2.78.19-.92.47-1.85.99-2.82.35-.65.81-1.33,1.55-2,.42-.38.94-.74,1.57-1.02.65-.3,1.42-.48,2.19-.5h0c4.96-.24,9.19-1.52,12.78-3.53,3.59-2.02,6.56-4.79,8.87-8.08,1.54-2.19,2.78-4.62,3.69-7.18,1.22-3.42,1.85-7.09,1.85-10.78,0-3.05-.5-6.27-1.55-9.23-1.05-2.97-2.63-5.67-4.73-7.83-1.41-1.44-3.05-2.66-5-3.6-2.6-1.25-5.77-2.03-9.75-2.04-1.17,0-2.06.18-2.8.45-.73.28-1.33.64-1.9,1.16-.38.34-.75.76-1.1,1.25-.47.66-.92,1.46-1.33,2.39-.54,1.23-.99,2.69-1.36,4.29-5.48,27.69-9.87,51.02-13.04,75.96h-.02c-.11.81-.22,1.63-.29,2.44-.08.84-.13,1.66-.13,2.4,0,.74.05,1.4.14,1.92.09.53.22.9.32,1.11.07.14.12.21.15.24.04.04.04.05.14.1.06.03.16.06.33.1.19.04.47.08.86.08.07,0,.14,0,.22,0h.07s.07,0,.07,0c.44,0,.93.04,1.49.16.56.13,1.19.36,1.82.76.42.27.83.61,1.17,1.01.46.53.8,1.15,1.01,1.72.28.77.35,1.46.35,2.04,0,.45-.04.83-.1,1.19l-.06.35-.11.33v.02s-.02.08-.04.15c-.03.14-.06.36-.1.63-.08.54-.17,1.27-.4,2.18-.16.61-.38,1.31-.81,2.08-.24.44-.56.91-.96,1.36-.46.52-1.06,1-1.74,1.37-.78.43-1.65.69-2.47.78l-.48.06-.48-.04c-5.54-.45-11.53-.75-17-.75-5.47,0-11.62.3-17.31.75h-.19s-.19.01-.19.01c-.48,0-.96-.06-1.46-.19-.5-.13-1.03-.34-1.56-.66-.35-.22-.71-.49-1.03-.82-.44-.44-.82-.99-1.1-1.58-.37-.8-.53-1.66-.52-2.43,0-.37.03-.72.09-1.06l.08-.46.13-.35s.02-.11.04-.22c.04-.25.08-.66.15-1.15.04-.33.1-.71.18-1.13.11-.56.26-1.21.57-1.96.18-.43.41-.89.74-1.37.37-.54.89-1.1,1.53-1.57.74-.54,1.64-.92,2.52-1.09.47-.09.93-.13,1.37-.13.08,0,.17,0,.27,0h.03s.03,0,.03,0c.09,0,.17,0,.25,0,.59,0,.96-.1,1.29-.23.33-.14.63-.33.99-.67.23-.23.48-.52.74-.88.34-.48.68-1.09,1.01-1.82.44-.96.84-2.11,1.2-3.38.48-1.69.87-3.59,1.22-5.52.47-2.59.85-5.24,1.32-7.69.25-1.32.53-2.58.88-3.79,2.99-14.06,5.37-27.6,7.22-42.17h0c.28-2.72.75-5.38,1.22-7.94.48-2.6.96-5.08,1.25-7.34.2-1.5.31-2.9.31-4.15,0-1.06-.08-2.01-.24-2.83-.16-.82-.39-1.49-.69-2.07-.2-.39-.43-.74-.71-1.07-.38-.44-.84-.87-1.49-1.29-.86-.56-2.06-1.11-3.72-1.56-2.2-.6-5.2-.99-9.08-1.03-5.61,0-11.39,1.3-16.78,3.68-5.39,2.38-10.37,5.83-14.38,10.03-2.68,2.8-4.92,5.92-6.61,9.28-2.25,4.48-3.51,9.34-3.52,14.5,0,3.02.56,5.83,1.53,8.28.97,2.45,2.35,4.54,3.99,6.14,1.09,1.07,2.29,1.93,3.56,2.57,1.7.84,3.53,1.29,5.53,1.3,2.7-.03,4.85-.71,6.49-1.7,1.64-.99,2.77-2.3,3.4-3.66.42-.91.63-1.84.63-2.77,0-1.06-.26-2.13-.89-3.24l-2.15-3.78,3.59-2.46c1.53-1.05,3.07-1.86,4.63-2.42,1.56-.56,3.14-.85,4.7-.85,1.92,0,3.81.47,5.42,1.36,1.62.89,2.94,2.16,3.91,3.62.65.97,1.14,2.02,1.5,3.12.47,1.46.7,3,.7,4.57,0,3.02-.84,6.16-2.55,9.12-1.7,2.95-4.28,5.7-7.71,7.92-2.29,1.48-4.95,2.73-8,3.67-4.06,1.26-8.78,1.97-14.23,2.01h-.36s-.36-.05-.36-.05c-7.24-1.06-13.42-2.88-18.61-5.35-5.19-2.47-9.4-5.62-12.58-9.3-.52-.6-1.01-1.22-1.48-1.85-.42,3.99-.64,8.04-.64,12.15,0,63.63,51.58,115.2,115.2,115.2,22.21,0,42.95-6.29,60.54-17.18-1.9.19-3.82.29-5.75.29Z"/>
      </g>
      <g>
        <rect class="e" x="151.91" y="117.56" width="224.91" height="79.21" rx="39.6" ry="39.6"/>
        <text class="d" transform="translate(190.91 170.69)"><tspan x="0" y="0">Contact</tspan></text>
      </g>
    </g>
  </g>
</svg>