<?xml version="1.0" encoding="UTF-8"?>
<svg id="b" data-name="Layer 2" xmlns="http://www.w3.org/2000/svg" viewBox="0 0 115.01 115.01">
  <defs>
    <style>
      .d {
        fill: #fff;
      }

      .e {
        fill: #dd604a;
      }
    </style>
  </defs>
  <g id="c" data-name="Layer 1">
    <g>
      <circle class="e" cx="57.5" cy="57.5" r="57.5"/>
      <path class="d" d="M83.75,63.17v19.41h-11.25v-18.11c0-4.55-1.63-7.65-5.7-7.65-3.11,0-4.96,2.09-5.77,4.12-.3.72-.37,1.73-.37,2.74v18.91h-11.26s.15-30.67,0-33.85h11.26v4.8s-.05.07-.07.11h.07v-.11c1.5-2.3,4.16-5.59,10.14-5.59,7.4,0,12.96,4.84,12.96,15.23h0ZM37.62,32.42c-3.85,0-6.37,2.53-6.37,5.85s2.45,5.85,6.22,5.85h.07c3.93,0,6.37-2.6,6.37-5.85-.07-3.32-2.44-5.85-6.29-5.85h0ZM31.92,82.59h11.25v-33.85h-11.25v33.85Z"/>
    </g>
  </g>
</svg>