<?xml version="1.0" encoding="UTF-8"?>
<svg id="b" data-name="Layer 2" xmlns="http://www.w3.org/2000/svg" viewBox="0 0 115.01 115.01">
  <defs>
    <style>
      .d {
        fill: #fff;
      }

      .e {
        fill: #dd604a;
      }
    </style>
  </defs>
  <g id="c" data-name="Layer 1">
    <g>
      <circle class="e" cx="57.5" cy="57.5" r="57.5"/>
      <g>
        <path class="d" d="M57.5,35.29c7.23,0,8.09.03,10.95.16,2.64.12,4.08.56,5.03.93,1.26.49,2.17,1.08,3.11,2.03.95.95,1.53,1.85,2.03,3.11.37.96.81,2.39.93,5.03.13,2.86.16,3.71.16,10.95s-.03,8.09-.16,10.95c-.12,2.64-.56,4.08-.93,5.03-.49,1.26-1.08,2.17-2.03,3.12s-1.85,1.53-3.11,2.03c-.95.37-2.39.81-5.03.93-2.86.13-3.71.16-10.95.16s-8.09-.03-10.95-.16c-2.64-.12-4.08-.56-5.03-.93-1.26-.49-2.17-1.08-3.11-2.03-.95-.95-1.53-1.85-2.03-3.12-.37-.95-.81-2.39-.93-5.03-.13-2.86-.16-3.71-.16-10.95s.03-8.09.16-10.95c.12-2.64.56-4.08.93-5.03.49-1.26,1.08-2.17,2.03-3.11.95-.95,1.85-1.53,3.11-2.03.95-.37,2.39-.81,5.03-.93,2.86-.13,3.71-.16,10.95-.16M57.5,30.41c-7.36,0-8.28.03-11.17.16-2.88.13-4.85.59-6.58,1.26-1.78.69-3.29,1.62-4.8,3.12-1.51,1.51-2.43,3.02-3.12,4.8-.67,1.72-1.13,3.69-1.26,6.58-.13,2.89-.16,3.81-.16,11.17s.03,8.28.16,11.17c.13,2.88.59,4.85,1.26,6.58.69,1.78,1.62,3.29,3.12,4.8,1.51,1.51,3.02,2.43,4.8,3.12,1.72.67,3.69,1.13,6.58,1.26,2.89.13,3.81.16,11.17.16s8.28-.03,11.17-.16c2.88-.13,4.85-.59,6.58-1.26,1.78-.69,3.29-1.62,4.8-3.12,1.51-1.51,2.43-3.02,3.12-4.8.67-1.72,1.13-3.69,1.26-6.58.13-2.89.16-3.81.16-11.17s-.03-8.28-.16-11.17c-.13-2.88-.59-4.85-1.26-6.58-.69-1.78-1.62-3.29-3.12-4.8-1.51-1.51-3.02-2.43-4.8-3.12-1.72-.67-3.69-1.13-6.58-1.26-2.89-.13-3.81-.16-11.17-.16"/>
        <path class="d" d="M57.5,43.59c-7.68,0-13.91,6.23-13.91,13.91s6.23,13.91,13.91,13.91,13.91-6.23,13.91-13.91-6.23-13.91-13.91-13.91M57.5,66.53c-4.99,0-9.03-4.04-9.03-9.03s4.04-9.03,9.03-9.03,9.03,4.04,9.03,9.03-4.04,9.03-9.03,9.03"/>
        <path class="d" d="M75.21,43.04c0,1.8-1.46,3.25-3.25,3.25s-3.25-1.46-3.25-3.25,1.46-3.25,3.25-3.25,3.25,1.46,3.25,3.25"/>
      </g>
    </g>
  </g>
</svg>